<?xml version="1.0" encoding="utf-8"?>
<!-- Generator: Adobe Illustrator 16.0.0, SVG Export Plug-In . SVG Version: 6.00 Build 0)  -->
<!DOCTYPE svg PUBLIC "-//W3C//DTD SVG 1.1//EN" "http://www.w3.org/Graphics/SVG/1.1/DTD/svg11.dtd">
<svg version="1.1" xmlns="http://www.w3.org/2000/svg" xmlns:xlink="http://www.w3.org/1999/xlink" x="0px" y="0px" width="400px"
	 height="550px" viewBox="0 0 400 550" enable-background="new 0 0 400 550" xml:space="preserve">
<g id="Layer_2">
	<path fill="#142638" d="M400,537.674c0,6.809-5.461,12.326-12.195,12.326H12.196C5.46,550,0,544.482,0,537.674V12.326
		C0,5.519,5.46,0,12.196,0h375.609C394.539,0,400,5.519,400,12.326V537.674z"/>
</g>
<g id="Layer_1">
	<path fill="#FFFFFF" stroke="#000000" stroke-miterlimit="10" d="M72.844,300.428"/>
	<path fill="#6ECDE5" d="M60.827,294.418V52.07c0,0,0.667-19.361,18.026-19.361c17.359,0,303.108-0.136,303.108-0.136v71.437
		l-229.668,2.138c0,0-18.694-2.67-18.026,17.358c0.667,20.03-0.668,170.912-0.668,170.912H60.827z"/>
	<path fill="#6ECDE5" d="M173.149,294.418l-0.996-130.854c0,0,0.517-15.013,13.977-15.013c13.458,0,195.831-0.135,195.831-0.135
		v41.096l-138.887,1.688c0,0-14.495-2.07-13.977,13.46c0.518,15.53,0.478,89.759,0.478,89.759H173.149z"/>
	<path fill="#6ECDE5" d="M267.636,294.418l-0.061-57.107c0,0,0.441-12.822,11.936-12.822c11.498,0,102.615-0.136,102.615-0.136
		l-0.31,27.217l-63.677,1.461c0,0-12.378-1.768-11.938,11.495c0.442,13.266-0.071,29.892-0.071,29.892H267.636z"/>
	<rect x="60.827" y="351.5" fill="#6ECDE5" width="72.771" height="165.926"/>
	<rect x="173.511" y="351.5" fill="#6ECDE5" width="56.703" height="135.586"/>
	<rect x="267.575" y="351.5" fill="#6ECDE5" width="38.616" height="103.148"/>
	<rect x="11.84" y="299.926" fill="#6ECDE5" width="40.976" height="46.568"/>
	<polygon fill="#6ECDE5" points="337.726,350.488 360.729,350.488 360.729,409.115 381.961,408.98 381.961,427.43 337.726,427.562 	
		"/>
</g>
</svg>
