<?xml version="1.0" encoding="utf-8"?>
<!-- Generator: Adobe Illustrator 16.0.0, SVG Export Plug-In . SVG Version: 6.00 Build 0)  -->
<!DOCTYPE svg PUBLIC "-//W3C//DTD SVG 1.1//EN" "http://www.w3.org/Graphics/SVG/1.1/DTD/svg11.dtd">
<svg version="1.1" xmlns="http://www.w3.org/2000/svg" xmlns:xlink="http://www.w3.org/1999/xlink" x="0px" y="0px" width="400px"
	 height="550px" viewBox="0 0 400 550" enable-background="new 0 0 400 550" xml:space="preserve">
<g id="Layer_2">
	<path fill="#142638" d="M400,537.674c0,6.809-5.461,12.326-12.195,12.326H12.196C5.46,550,0,544.482,0,537.674V12.326
		C0,5.519,5.46,0,12.196,0h375.609C394.539,0,400,5.519,400,12.326V537.674z"/>
</g>
<g id="Layer_1">
	<path fill="#FFFFFF" stroke="#000000" stroke-miterlimit="10" d="M81.511,300.429"/>
	<path fill="#6ECDE5" d="M69.494,294.419V52.071c0,0,0.667-19.361,18.026-19.361c17.359,0,238.48-0.136,238.48-0.136v71.437
		l-165.041,2.138c0,0-18.694-2.67-18.026,17.358c0.667,20.03-0.668,170.912-0.668,170.912H69.494z"/>
	<path fill="#6ECDE5" d="M181.815,294.419l-0.996-130.854c0,0,0.517-15.013,13.977-15.013c13.459,0,167.537-0.135,167.537-0.135
		l1.131,50.78l-110.594,1.688c0,0-14.494-2.07-13.977,13.46c0.518,15.53-0.652,80.075-0.652,80.075H181.815z"/>
	<rect x="69.494" y="351.501" fill="#6ECDE5" width="72.771" height="165.926"/>
	<rect x="182.178" y="351.501" fill="#6ECDE5" width="56.703" height="135.586"/>
	<rect x="20.506" y="299.927" fill="#6ECDE5" width="40.976" height="46.568"/>
	<polygon fill="#6ECDE5" points="275.999,351.502 316.315,351.502 316.315,427.694 351.583,427.692 351.583,459.604 
		275.999,459.604 	"/>
</g>
</svg>
