<svg xmlns="http://www.w3.org/2000/svg" width="450" height="400" viewBox="0 0 450 400">
    <path stroke="42e8fb" stroke-miterlimit="10" d="M51.5 164.5L232 26.417l180.5 135.25V378l-361-3z"/>
    <path fill="#FFF" d="M63 166.333l134.667 89.333L63 359zM266.333 255.666L401 166.333V359zM232.204 241l156.463 124H75zM251.687 205.541c-9.203 4.853-18.573 6.693-29.784 6.693-27.442 0-50.7-20.08-50.7-52.207 0-34.47 23.928-64.254 61.074-64.254 29.115 0 48.692 20.414 48.692 48.358 0 25.099-14.056 39.824-29.784 39.824-6.693 0-12.884-4.518-12.382-14.725h-.67c-5.856 9.872-13.553 14.725-23.593 14.725-9.705 0-18.072-7.864-18.072-21.083 0-20.749 16.398-39.657 39.657-39.657 7.195 0 13.554 1.506 17.904 3.514l-5.689 30.287c-2.51 12.717-.502 18.573 5.021 18.741 8.533.167 18.071-11.211 18.071-30.621 0-24.263-14.558-41.665-40.494-41.665-27.274 0-50.198 21.585-50.198 55.553 0 27.944 18.239 45.179 43.003 45.179 9.538 0 18.407-2.008 25.267-5.857l2.677 7.195zm-9.204-72.286c-1.673-.502-4.518-1.171-8.366-1.171-14.725 0-26.605 13.888-26.605 30.119 0 7.362 3.681 12.717 11.043 12.717 9.705 0 18.573-12.382 20.414-22.756l3.514-18.909z"/>
</svg>
