<?xml version="1.0" encoding="utf-8"?>
<!-- Generator: Adobe Illustrator 16.0.0, SVG Export Plug-In . SVG Version: 6.00 Build 0)  -->
<!DOCTYPE svg PUBLIC "-//W3C//DTD SVG 1.1//EN" "http://www.w3.org/Graphics/SVG/1.1/DTD/svg11.dtd">
<svg version="1.1" id="Layer_1" xmlns="http://www.w3.org/2000/svg" xmlns:xlink="http://www.w3.org/1999/xlink" x="0px" y="0px"
	 width="400px" height="550px" viewBox="0 0 400 550" enable-background="new 0 0 400 550" xml:space="preserve">
<path fill="#FFFFFF" stroke="#000000" stroke-miterlimit="10" d="M71.667,334"/>
<path fill="#FFFFFF" d="M71.667,334V92c0,0,0.667-19.333,18-19.333s298,0,298,0V144L163,146c0,0-18.667-2.667-18,17.333
	S144.333,334,144.333,334H71.667z"/>
<path fill="#6ECDE5" d="M170.833,334V186.491c0,0,0.517-14.991,13.957-14.991c13.439,0,186.21,0,186.21,0v51.878l-129.348,1.55
	c0,0-14.475-2.067-13.957,13.441c0.517,15.507-0.518,95.63-0.518,95.63H170.833z"/>
<path fill="#FFFFFF" d="M257.061,334L257,262.303c0,0,0.44-12.803,11.919-12.803c11.479,0,84.724,0,84.724,0l-0.308,35.849
	l-44.802,1.324c0,0-12.362-1.766-11.921,11.479c0.44,13.245-0.073,35.849-0.073,35.849H257.061z"/>
<rect x="71.667" y="406" fill="#FFFFFF" width="72.667" height="122"/>
<rect x="172.189" y="406" fill="#6ECDE5" width="56.622" height="99.833"/>
<rect x="257" y="406" fill="#FFFFFF" width="39.601" height="82"/>
<rect x="14.75" y="336.25" fill="#6ECDE5" width="40.917" height="67.084"/>
<polygon fill="#FFFFFF" points="307.65,333.5 330.621,333.5 330.621,379.5 353.643,379.5 353.643,400.584 307.65,400.584 "/>
</svg>
